<mxfile host="www.draw.io" modified="2020-05-26T08:54:07.761Z" agent="5.0 (Windows NT 10.0; Win64; x64) AppleWebKit/537.36 (KHTML, like Gecko) Chrome/83.0.4103.61 Safari/537.36" etag="FpQijspVG6sgWFdJveHL" version="13.1.3" type="github">
  <diagram id="ApKzPKLyaNPdFLaYZ3tb" name="Page-1">
    <mxGraphModel dx="2067" dy="1812" grid="1" gridSize="10" guides="1" tooltips="1" connect="1" arrows="1" fold="1" page="1" pageScale="1" pageWidth="827" pageHeight="1169" math="0" shadow="0">
      <root>
        <mxCell id="0" />
        <mxCell id="1" parent="0" />
        <mxCell id="qZETu_6erzXCQN56X6-U-1" value="" style="shape=cube;whiteSpace=wrap;html=1;boundedLbl=1;backgroundOutline=1;darkOpacity=0.05;darkOpacity2=0.1;rotation=90;size=46;fontSize=19;fontFamily=Times New Roman;" parent="1" vertex="1">
          <mxGeometry x="-50" y="-261.4" width="155.63" height="56.56" as="geometry" />
        </mxCell>
        <mxCell id="qZETu_6erzXCQN56X6-U-2" value="" style="shape=cube;whiteSpace=wrap;html=1;boundedLbl=1;backgroundOutline=1;darkOpacity=0.05;darkOpacity2=0.1;rotation=90;size=38;shadow=0;comic=0;fillColor=none;fontSize=19;fontFamily=Times New Roman;" parent="1" vertex="1">
          <mxGeometry x="115" y="-290" width="148.75" height="113.75" as="geometry" />
        </mxCell>
        <mxCell id="qZETu_6erzXCQN56X6-U-4" value="" style="shape=cube;whiteSpace=wrap;html=1;boundedLbl=1;backgroundOutline=1;darkOpacity=0.05;darkOpacity2=0.1;rotation=-90;size=57;fontSize=19;fontFamily=Times New Roman;" parent="1" vertex="1">
          <mxGeometry x="5" y="-241" width="60" height="16.56" as="geometry" />
        </mxCell>
        <mxCell id="qZETu_6erzXCQN56X6-U-5" value="" style="endArrow=none;html=1;exitX=0;exitY=0;exitDx=0;exitDy=0;exitPerimeter=0;fontSize=19;fontFamily=Times New Roman;" parent="1" source="qZETu_6erzXCQN56X6-U-4" edge="1">
          <mxGeometry width="50" height="50" relative="1" as="geometry">
            <mxPoint x="100" y="-135" as="sourcePoint" />
            <mxPoint x="160" y="-233" as="targetPoint" />
          </mxGeometry>
        </mxCell>
        <mxCell id="qZETu_6erzXCQN56X6-U-6" value="" style="endArrow=none;html=1;exitX=0;exitY=0;exitDx=16.56;exitDy=16.56;exitPerimeter=0;fontSize=19;fontFamily=Times New Roman;" parent="1" source="qZETu_6erzXCQN56X6-U-4" edge="1">
          <mxGeometry width="50" height="50" relative="1" as="geometry">
            <mxPoint x="65" y="-215" as="sourcePoint" />
            <mxPoint x="160" y="-233" as="targetPoint" />
          </mxGeometry>
        </mxCell>
        <mxCell id="qZETu_6erzXCQN56X6-U-7" value="" style="endArrow=none;html=1;exitX=0;exitY=0;exitDx=43.44;exitDy=0;exitPerimeter=0;fontSize=19;fontFamily=Times New Roman;" parent="1" source="qZETu_6erzXCQN56X6-U-4" edge="1">
          <mxGeometry width="50" height="50" relative="1" as="geometry">
            <mxPoint x="60" y="-135" as="sourcePoint" />
            <mxPoint x="160" y="-233" as="targetPoint" />
          </mxGeometry>
        </mxCell>
        <mxCell id="qZETu_6erzXCQN56X6-U-8" value="" style="endArrow=none;html=1;exitX=0;exitY=0;exitDx=60;exitDy=16.56;exitPerimeter=0;fontSize=19;fontFamily=Times New Roman;" parent="1" source="qZETu_6erzXCQN56X6-U-4" edge="1">
          <mxGeometry width="50" height="50" relative="1" as="geometry">
            <mxPoint x="70" y="-215" as="sourcePoint" />
            <mxPoint x="160" y="-233" as="targetPoint" />
          </mxGeometry>
        </mxCell>
        <mxCell id="qZETu_6erzXCQN56X6-U-9" value="" style="shape=cube;whiteSpace=wrap;html=1;boundedLbl=1;backgroundOutline=1;darkOpacity=0.05;darkOpacity2=0.1;rotation=90;size=37;shadow=0;comic=0;fillColor=none;fontSize=19;fontFamily=Times New Roman;" parent="1" vertex="1">
          <mxGeometry x="290" y="-281.53999999999996" width="114.87" height="96.83" as="geometry" />
        </mxCell>
        <mxCell id="qZETu_6erzXCQN56X6-U-10" value="" style="shape=cube;whiteSpace=wrap;html=1;boundedLbl=1;backgroundOutline=1;darkOpacity=0.05;darkOpacity2=0.1;rotation=-90;size=57;fontSize=19;fontFamily=Times New Roman;" parent="1" vertex="1">
          <mxGeometry x="205" y="-236" width="50" height="16.56" as="geometry" />
        </mxCell>
        <mxCell id="qZETu_6erzXCQN56X6-U-15" value="" style="endArrow=none;html=1;exitX=0;exitY=0;exitDx=50;exitDy=16.56;exitPerimeter=0;fontSize=19;fontFamily=Times New Roman;" parent="1" source="qZETu_6erzXCQN56X6-U-10" edge="1">
          <mxGeometry width="50" height="50" relative="1" as="geometry">
            <mxPoint x="273" y="-177" as="sourcePoint" />
            <mxPoint x="323" y="-227" as="targetPoint" />
          </mxGeometry>
        </mxCell>
        <mxCell id="qZETu_6erzXCQN56X6-U-16" value="" style="endArrow=none;html=1;exitX=0;exitY=0;exitDx=16.56;exitDy=16.56;exitPerimeter=0;fontSize=19;fontFamily=Times New Roman;" parent="1" source="qZETu_6erzXCQN56X6-U-10" edge="1">
          <mxGeometry width="50" height="50" relative="1" as="geometry">
            <mxPoint x="273" y="-177" as="sourcePoint" />
            <mxPoint x="323" y="-227" as="targetPoint" />
          </mxGeometry>
        </mxCell>
        <mxCell id="qZETu_6erzXCQN56X6-U-17" value="" style="endArrow=none;html=1;exitX=0;exitY=0;exitDx=33.44;exitDy=0;exitPerimeter=0;fontSize=19;fontFamily=Times New Roman;" parent="1" source="qZETu_6erzXCQN56X6-U-10" edge="1">
          <mxGeometry width="50" height="50" relative="1" as="geometry">
            <mxPoint x="273" y="-177" as="sourcePoint" />
            <mxPoint x="323" y="-227" as="targetPoint" />
          </mxGeometry>
        </mxCell>
        <mxCell id="qZETu_6erzXCQN56X6-U-18" value="" style="endArrow=none;html=1;exitX=0;exitY=0;exitDx=0;exitDy=0;exitPerimeter=0;fontSize=19;fontFamily=Times New Roman;" parent="1" source="qZETu_6erzXCQN56X6-U-10" edge="1">
          <mxGeometry width="50" height="50" relative="1" as="geometry">
            <mxPoint x="273" y="-177.25" as="sourcePoint" />
            <mxPoint x="323" y="-227.25" as="targetPoint" />
          </mxGeometry>
        </mxCell>
        <mxCell id="qZETu_6erzXCQN56X6-U-19" value="卷积" style="text;html=1;strokeColor=none;fillColor=none;align=center;verticalAlign=middle;whiteSpace=wrap;rounded=0;shadow=0;comic=0;fontSize=19;fontFamily=Times New Roman;" parent="1" vertex="1">
          <mxGeometry x="46" y="-157" width="40" height="20" as="geometry" />
        </mxCell>
        <mxCell id="qZETu_6erzXCQN56X6-U-20" value="池化" style="text;html=1;strokeColor=none;fillColor=none;align=center;verticalAlign=middle;whiteSpace=wrap;rounded=0;shadow=0;comic=0;fontSize=19;fontFamily=Times New Roman;" parent="1" vertex="1">
          <mxGeometry x="240" y="-155" width="40" height="20" as="geometry" />
        </mxCell>
        <mxCell id="qZETu_6erzXCQN56X6-U-21" value="32×32×3" style="text;html=1;strokeColor=none;fillColor=none;align=center;verticalAlign=middle;whiteSpace=wrap;rounded=0;shadow=0;comic=0;fontFamily=Times New Roman;fontSize=19;" parent="1" vertex="1">
          <mxGeometry x="-8" y="-135" width="40" height="20" as="geometry" />
        </mxCell>
        <mxCell id="qZETu_6erzXCQN56X6-U-23" value="32×32×64" style="text;html=1;strokeColor=none;fillColor=none;align=center;verticalAlign=middle;whiteSpace=wrap;rounded=0;shadow=0;comic=0;fontFamily=Times New Roman;fontSize=19;" parent="1" vertex="1">
          <mxGeometry x="151" y="-135" width="40" height="20" as="geometry" />
        </mxCell>
        <mxCell id="qZETu_6erzXCQN56X6-U-24" value="16×16×64" style="text;html=1;strokeColor=none;fillColor=none;align=center;verticalAlign=middle;whiteSpace=wrap;rounded=0;shadow=0;comic=0;fontFamily=Times New Roman;fontSize=19;" parent="1" vertex="1">
          <mxGeometry x="304" y="-134" width="66" height="20" as="geometry" />
        </mxCell>
        <mxCell id="qZETu_6erzXCQN56X6-U-40" value="" style="shape=image;verticalLabelPosition=bottom;labelBackgroundColor=#ffffff;verticalAlign=top;aspect=fixed;imageAspect=0;image=data:image/png,iVBORw0KGgoAAAANSUhEUgAAAMgAAADICAYAAACtWK6eAAAUm0lEQVR4Xu2de7BddXXH19q54cYOThHItHRAmNYS7v2tfcjlghR5WB7yBhHRlkJRWijlJQ8LKoIFUZAKgxUMQgURlEHxAaUIWMWoWCqQIdy9fie5kBmj4KPaTqFQNcm9e3V+6YGm4Ybs3+/sx++cvfZMJn9krd9a67PON/ucvX8PBL2UgBLYJAFUNkpACWyagApEPx1K4FUIqED046EEVCD6GVACYQT0DhLGTb1aQkAF0pJGa5lhBFQgYdzUqyUEVCAtabSWGUZABRLGTb1aQkAF0pJGa5lhBFQgYdzUqyUEVCAtabSWGUZABRLGTb1aQkAF0pJGa5lhBFQgYdzUqyUEVCAtabSWGUZABRLGTb1aQkAF0pJGa5lhBFQgYdzUqyUEVCAtabSWGUZABRLGTb1aQkAF0pJGa5lhBFQgYdzUqyUEVCAtabSWGUZABRLGTb1aQkAF0pJGa5lhBFQgYdzUqyUEVCAtabSWGUZABRLGTb1aQkAF0pJGa5lhBFQgYdzUqyUEVCAtabSWGUZABRLGTb1aQkAF0pJGa5lhBFQgYdzUqyUEVCAtabSWGUZABRLGTb1aQkAF0pJGa5lhBFQgYdzUqyUEVCAtabSWGUZABRLGTb1aQkAF0pJGa5lhBFQgYdzUqyUEVCAtabSWGUZABRLGTb1aQkAF0pJGa5lhBIZaIJ1Oh2ZnZ3dDxF0AwP0Z6/39HAD80v1BxEdF5JHZ2dknVqxY8XQYRvUaVgJDJ5A0TfcCgGNE5KieIAr3DhEfyvP8zpmZmTunp6dfKOyohkNLYGgEQkR/AgDnA8AbS+jWjxDxhm222eaapUuXzpQwng4xoAQGXiDj4+MmSZL3A8CJFfTgMQC4mpm/VMHYOuQAEBhogaRp+j4RceLYqmLWn87z/IJut/tixXF0+MgIDKRAdt55523nz59/MyIeXSPPfwGAC5jZ/a1XSwgMnEA6nc4i90MaABY30CN3BzmXmW9uILaGbIDAQAnEGLM3Ij7cAKeNQ17KzJdFkIemUDGBgRGIMeZcRLy2Yh4+w1/GzJf6OKjt4BEYCIEYYy5ExKtiwysix1tr3dc9vYaUQPQCIaLTAWBJrPzzPN+t2+0+EWt+mld/BKIWCBG5dxu391diLd6vZ+ZnaomkQWolEK1AjDGHIuK9ADBSEpFpEZlGxCcQcec8zyfd3yWN3R0dHd1j2bJlvyppPB0mEgJRCiRN01REnDh27JeTiNyUJMlNWZYt23issbGxHZMkOQIR3RSVP+gz1p3MfHyfY6h7ZASiFAgR/RMAHNEPK0T8HABcN5cwNh53YmJi4dq1a89HxPMAYDQ0rohcb609O9Rf/eIjEJ1A0jT9kIj0847hF4h4SZZlN/ni7nQ6u4nIbSJifH03sNfHv33Ai801KoEYYw5BxAf6gHR3kiSXTE1NcegYRLQDIt7fh0h+AwD7MvPjoTmoXzwEohHI4sWLt5qZmfkmAEwG4rmFmf8y0PcVbmmacqhIROTL1tp3lJWLjtMcgWgEQkSfAoAzAlF8kZn/NNB3k25E9D0A2CdkXBF5t7XW/Q7Sa4AJRCEQY8xJvR/V3ijdKsAsyw70dizoQEQ/AoDXFzTf0GzFzMzMvitXrvyPAF91iYRA4wLpPUF6OPCdxC+Y+XeqZDk2NrbdvHnzfhoY4+PMfGGgr7pFQKBxgRDR1QDw3hAWIvKH1tpVIb4+PsaYAxDxWz4+L9ki4puzLPtuiK/6NE+gUYGkafpmEVkagkFETrXWfibEN8THGHMmIl7v6ysi91trD/f1U/s4CDQqEGPM1xHxsAAUH2TmKwL8+nJJ0/QON4PXdxAROdNaG+2ES9962mTfmED6mKX7FWY+rokmGWN27S3Y2tIz/o/zPN+z2+3+3NNPzRsm0IhAOp3O9nmeu5WBvnOt/k1EDrDWdpviZoy5BBE/HBD/Ima+MsBPXRok0IhAjDHXIeJZvnUj4mkhU0h847ya/fj4+BZJkjhx7+Ezrog8tWDBggmd8etDrXnb2gXidj4UkZCdQW5n5pOaRwZgjHk7In7ZNxcROcta616I6jUgBGoXCBF9HgBO8OTzzMjIyH7Lly9f7elXmXmapreKyLs8AzzOzF53Hs/x1bxkArUKhIjeAgDfCKjhHGb+ZIBfZS7GmHFEdFNRtvYMchIzD8IqSc+yhtO8VoEYY+5GxLd6ovw2Mx/g6VOLuTHmfYj4Mc9g0dbjWUcrzGsTCBEdCwBf8aWKiEdkWfZ1X7+67InIrVTczSceIh6TZdk9Pj5q2wyB2gSSpum33CNanzIR8R+yLPsrH5+6bUPe54jIPdbaY+rOVeP5E6hFIIGzdf993rx5ez/55JNP+ZdVn8fk5OT8NWvWuLtI6hO19z7n2z4+als/gVoEQkQ/8D23Q0QusdZ+pH4k/hGJ6D0A8PeentE8tvbMu1XmlQvEGPMuRLzVk+r06OjonsuWLXve068R88nJyd/q3UXcMW8+1x66NNcHV/22lQuEiB4CgP19SkPEs7Ms85456xOjbFsiclP23dR9n+saZv4bHwe1rZdApQIxxhyFiP/oWdKjzLynp0/j5pOTk7/du4v47K/1E0RMsyz7z8YL0ATmJFCpQNI0vUtEfGfeDuyLtDRN3y8ivhMSz2DmG/TzGSeBygQSeJbHN5j5kDhRbT4rd/LVFlts4Z5o+axh/w4z//HmR1eLJghUKZAbEdHrHYaIHG2tdVuODuyVpuklIuI7Hf5gZv7ngS16iBOvRCBENAYA7kiAwtt4unlNWZbtN+ise5s8PAkACz1quZmZT/GwV9OaCFQiEGPMlYjoTp/1uU5n5k/7OMRqS0TuN8Vfe+T330mSpFNTUz/08FHTGgiULhAictvwuLvHdkXzF5HVMzMznenp6ReK+sRsFzhrWVccRtjUKgRyAQD8nWetH2Xmiz19ojYnokcA4I88knySmZs4udcjxfaZlioQNy9p7dq1T3juaTsjIrs2uc68irYTkfd/FIj4zizL7qoiHx0zjECpAiGiPweA2zxTuY2ZfVfmeYao3zxN098XEQsACzyiN7Zji0eOrTItWyBunfbbPQkewswhqww9w9Rvboz5AiL+mU9kPRTUh1b1tqUJhIjcFIuVPmcKVr3xdPX4Xj1CyCIxd9x1lmW+TwCbLnVo45cmkDRNzxeRazxJncLMN3v6DJR5wDkjTzNzWYeLDhSrGJMtTSBE9B0A8HnR9/SLL77YWb16tTuRaWgvY8yH3ZFwPgWKyKHW2gd9fNpqa4w5zn2Ndf85W2u/XzaHUgQSuNdVK87y621XutyncYj4iSzL3IGiem2GwEZLuW90C9eYeUVZ4EoRSMib8zzPqdvtuqc8Q38RkZvyf5RHoSuZ2U3X0etVCBhjTkXEjQ9r/ZW7m4jIkjL2Qi5FIETk9sr1aWirHmeGrKpMkuSgqampoDNJ2qCqRYsWvXb+/Pluh06aq15EXJ3n+SfXrFmzZNWqVWtCmfQtEGPM0YjotYWNO0LAWntnaNKD5pem6etEZNpzAuPVzOxeNuo1BwEiuggAPloAzmOIuCTLMt9l3+uH7lsgROQOsSl8uqzbxHnhwoVm6dKlMwWKGxoTY8xnEfHdHgUxM3vtlOIx9kCbElEHANzBS6/zKORBRLzBdz+yvgSyyy67bDMyMuLefWzrkegVzPxBD/uhMO10Osflee47jWR/Zg46gWsooG2iCCIKeSG9Ls/zCd/fvX0JJOS7dVvfFO+1116veeGFF9weX9sX/fCKyFXWWn1puAGwkI36eu5BB6r2K5AvIeI7ijYcAO5l5qM97IfKlIjcepfTPIpazswTHvZDbdrpdBblee7uqL/rWejP1q1bt/v09LT3acXBAiGiHQBgCgC2KpqsOy7AWus7mbHo8NHbhezykuf5vt1u1x3Y0/or8OgMQMQPZFnmu8l4fz/SfW91blHUggULTMtPWEqIyD3NeoPHp33o1sp41P6yKRH9BQCETEvKnnvuuT2fffbZX4fE7ecO8jUAKLwBs4hcb609OyTJYfIhok8AwDkeNS1j5t097IfOtDcR1r0T8j3TEvI8P7nb7QY94nUggwTS+y74rz5frwDgSGa+b+i651lQyHJcRHxTlmVuhWIrL2PMPYjo/dtVRG611p7cD7QggRhjzkXEaz0C/3zbbbfdoW3vPjbFJ2CGbyvmrc3Fi4iuAIAPeHzW1pu6r/Szs7P7r1y5sq9j+4IEQkReX68A4EZm9tnlw5fHQNmnaXqViFzokfRAbsfqUd+cpmmaniAi7kxL76vfr1YvBfQWyPj4+OIkSdy5FoWfXgHAsczsRKWXO0gkTfcTEbc8oPAlIvtUMZ27cAI1G/Y+Zw8AgNslx+sq46tVsEACvl7lo6Ojr23506tXNJiIHgeASY/OX8nMbv7R0F+9zT8e8D2RrMyvVsECcY4TExMLZ2ZmjhQRt/78iM10rFUzd4t+eo0xlyHih4rau3dOzLyrh/3AmhKRO9E46IlnWV+t+hLIhuQ7nc72s7OzByLiob0NG+Zv+O+IeGKWZV8Y2G5VlPj4+PieSZK4J4GFrzZMgU/T9DQRCdphs8yvVqUJZMPuGmPekCTJgXmeO8Ec6M4QHx0d3WpQTooq/EktyZCIHgOAwu843JPDLMvOLyl8dMMYY/ZPkuQ+EXlNQHI8Ozt78IoVK34W4LtJF+8f6UWDdzodckJhZt+z+4qGGHg7InJnMBae2YyIT2VZtmjgC5+jgLGxsR1HRkacOExIfVUdF16ZQEKKbJtPp9PZN8/z7/rUPaxfWQOWJW+I7WJmLrJ4ygf1elsViDeych2IyE34LLwwSkTut9YeXm4WzY4WMP1mw4S/ysy+mxUWLlgFUhhVNYZE9HEA8D3Ic2gWUgUeof1SM34oIgdba1dV0x29g1TFtfC4aZoeJCK+p0t9hplPLRwkUkMiOtKtEQpNr47NvvUOEtqdEv2IyC1b9vnx/WsR6VT5P2eJ5c05lDFmHBH72faplhenKpCqPwkFxici96TvPQVMNzQZ2AmMO+2004Itt9wyaH1GD8CDzOzeu1V+qUAqR7z5AMaYPRDx0c1b/p8FIv50ZmZm97Kf+/vkEGI7MTHxe+vWrftJiG/PZ1WSJG+bmpriPsYo7KoCKYyqWsOAbYFcQgN1FwmZpLkR9d+IyEF1TtpUgVT7uS88+vj4+D5JknyvsIN7Rj9Ad5E0TU8WkVt86pvDtvZFdyqQPjtWpnuapne4XSc9x4z+LhIwMfMVCBDxhCzL7vBk07e5CqRvhOUN0Ol03Dy2b/qM6O4iiLhPrEdIE9HVAPBen5o2thWRM621S/oZI9RXBRJKriI/IvoqALzNc/jPM7M7HzKqK+C8+Lnyr+Vx7qbAqUCi+kitX214uIiEbG5xOjMHTROvAgER3Q4AJ/Y59teY+dg+x+jLXQXSF75qnAPvIr9MkuSAuh5/bqpyInLT968EgIP6pBPFGSkqkD67WIW7MeYARAw5G+RuZvb9elZaCb3FTm4HQ5/9CuaMz8xRfDajSKK0Dg3RQETkHol67+kkIndZa99ZJ4reLv9OGKeUEPd5Zu5bYCXksX4IFUhZJEsep9Pp7Jbn+Q98jtV+KYU6RWKMOQQRnTgWl4Dgx8zsvXtiCXE3OYQKpEq6fY6dpum1InJu4DBB2/37xCIitxrSrYos48qY2R2ME9WlAomqHf8/md6etO4usk1gmrcz80mBvpt0I6KDAeAsz4NJXy2Nh5l537LzLGM8FUgZFCscg4guBYC/7SOEW7F4ThknVfWO+z4TAE7oI5+NXe9jZrcuJMpLBRJlW15xJ3HvRfpaZut21583b971U1NT7viFwpcxZuskSQ4TkcNKFobbP/cOa22ZYitcV1FDFUhRUg3aEZHbftNN7/Y5C3KujJ9HxOtE5J7R0dGnN7UdU28x014AsD8AOGFsXUH5NzDzGRWMW+qQKpBScVY3WMjpVAWyeRYANl7P7c67994Pt0Csl01E5GPWWu8d231ilGWrAimLZA3jpGl6uYhcXEOoqkKsE5HzrLWfqipA2eOqQMomWvF4RPQgALinSIN2TfXE8dAgJa4CGaRu9XItaSJgnZV/cXZ29rxBWx7sAKlA6vyYlBhrEL5uIeKsiHyEmd2j6oG8VCAD2bb/TbqEdyRVVv+giFxe5/rxKopRgVRBtcYxIxTJfwHA5czsVhIO/KUCGfgWvrzIyp0+tXfD5dyS5/l13W53ecN5lBZeBVIaysYHmpem6UUi4oSyoOZs7kySZMnU1JTXriw15xgUTgUShC1eJ2PMGwHgIkR8aw1Z3isiS6y17rDNobxUIEPZ1vU/4N/kthBCRLeNUOhs4LnoLEPEewDg7izLsiHF93JZKpAh7/DY2Nh2IyMjx/cOXHXrLbb0LNntZvh9RFyOiA9kWea1LZFnrOjMVSDRtaS6hMbHx7dIksSJxJ2W6/52f3YAgO0BwD19egYRnxUR9+dpEXkEAJ7odrtrq8sq7pFVIHH3R7NrmIAKpOEGaPi4CahA4u6PZtcwARVIww3Q8HETUIHE3R/NrmECKpCGG6Dh4yagAom7P5pdwwRUIA03QMPHTUAFEnd/NLuGCahAGm6Aho+bgAok7v5odg0TUIE03AANHzcBFUjc/dHsGiagAmm4ARo+bgIqkLj7o9k1TEAF0nADNHzcBFQgcfdHs2uYgAqk4QZo+LgJqEDi7o9m1zABFUjDDdDwcRNQgcTdH82uYQIqkIYboOHjJqACibs/ml3DBFQgDTdAw8dNQAUSd380u4YJqEAaboCGj5uACiTu/mh2DRNQgTTcAA0fNwEVSNz90ewaJqACabgBGj5uAiqQuPuj2TVMQAXScAM0fNwEVCBx90eza5iACqThBmj4uAmoQOLuj2bXMAEVSMMN0PBxE1CBxN0fza5hAiqQhhug4eMmoAKJuz+aXcMEVCANN0DDx01ABRJ3fzS7hgmoQBpugIaPm4AKJO7+aHYNE1CBNNwADR83ARVI3P3R7BomoAJpuAEaPm4CKpC4+6PZNUzgfwDoZzEjeqS2CAAAAABJRU5ErkJggg==;" parent="1" vertex="1">
          <mxGeometry x="545" y="95.5" width="200" height="200" as="geometry" />
        </mxCell>
        <mxCell id="qZETu_6erzXCQN56X6-U-41" value="&lt;font style=&quot;font-size: 34px&quot;&gt;*&lt;/font&gt;" style="text;html=1;strokeColor=none;fillColor=none;align=center;verticalAlign=middle;whiteSpace=wrap;rounded=0;shadow=0;comic=0;fontFamily=Times New Roman;fontSize=19;" parent="1" vertex="1">
          <mxGeometry x="467" y="190" width="40" height="20" as="geometry" />
        </mxCell>
        <mxCell id="qZETu_6erzXCQN56X6-U-42" value="6，3，9，8，1，3，5，7" style="rounded=0;whiteSpace=wrap;html=1;shadow=0;comic=0;fillColor=none;fontFamily=Times New Roman;fontSize=19;" parent="1" vertex="1">
          <mxGeometry x="129" y="350" width="218" height="30" as="geometry" />
        </mxCell>
        <mxCell id="qZETu_6erzXCQN56X6-U-44" value="3，5，7" style="rounded=0;whiteSpace=wrap;html=1;shadow=0;comic=0;fillColor=none;fontFamily=Times New Roman;fontSize=19;" parent="1" vertex="1">
          <mxGeometry x="601" y="350" width="88" height="30" as="geometry" />
        </mxCell>
        <mxCell id="qZETu_6erzXCQN56X6-U-45" value="" style="shape=image;verticalLabelPosition=bottom;labelBackgroundColor=#ffffff;verticalAlign=top;aspect=fixed;imageAspect=0;image=data:image/png,iVBORw0KGgoAAAANSUhEUgAAAWAAAADrCAYAAABXYUzjAAAAAXNSR0IArs4c6QAAAARnQU1BAACxjwv8YQUAADPNSURBVHhe7Z0J2DVj/cdHy7+dLCFLlEhJi6W000JRohQilVTSrkWXSlK6KClJC+XiRQvZ2ohSWpEl2pRXhKKS9n15/+9n3vN93t97vzPnzJx1Zp7v57qe65yZ55yZe+77/n3v7/zmnjmZMcYYY4wxxhhjjDHGGGOMMcYYY4wxxhgzPCv0Xiux6qqrLlp//fV7S8YYY6pw2WWX3br45V5LlpZSS4A333zzRZdeemlvyRhjTBVWWGGFyxa/bLFkaSm3670aY4yZMhZgY4yZERZgY4yZERZgY4yZERZgY4yZERZgY4yZERZgY4yZERZg0zn22muv7JBDDuktGdNcLMCmc1x88cXZlVde2VsyprlYgE3n+Pe//53973//6y0Z01wswKZzWIBNW7AAm85hATZtwQJsOocF2LQFC7DpHBZg0xYswKZz/Otf/7IAm1ZgATadww7YtAULsOkUCK/+jGk6FmDTKXC/YAE2bcACbDqFBdi0CQuw6RQWYNMmLMCmU1iATZuwAJtOYQE2bcICbDoFc4DBAmzagAXYdAo7YNMmLMCmU1iATZuwAJtOYQE2bcICbDqFBdi0CQuw6RQWYNMmLMCmU1iATZuwAJtOYQE2bcICbDqF5wGbNmEBNp3CDti0CQuw6RQWYNMmLMCmU1iATZuwAJtOYQE2bcICbDqFBdi0CQuw6RQWYNMmLMCmU1iATZuwAJtO4XnApk1YgE2nsAM2bcICbDqFBdi0CQuw6RQWYNMmLMCmU1iATZuwAJtOYQE2bcICbDqFBdi0CQuw6RQWYNMmGifAf//737NFixb1loyphwXYtIlGCfDvfve7bLXVVsvOP//83hpj6uEbMUybaJQA33zzzdnf/va37Prrr++tMaYedsCmTTRKgP/85z/nr//85z/zV2PqYgE2baJRAvyXv/wlf52EALPtnXfeObvxxht7a0wb+O9//5vtueee2eWXX95b0x8JMPhagmk680aAf/KTn2RnnXVWdskll/TWmDZw6623Zqecckp2wQUX9Nb0xwJs2sS8SUEwuwJwVKY9cE0AdHFtEFGAnYYwTWfeOOB//OMf+asFuF1IgKv2CQuwaRPzzgH/5z//yV9NO7ADNl1m3jhgpyDayV//+tf8tWqfiEJtATZNZyoC/POf/zy77rrrekvlTEOA7YDHC/WpM5dJMKoDJvWk9JMxTWMqArzDDjtkBxxwQG+pnEmmIJwDngxHHXVUtummm/aWxs+oOeA99tgj22effXprjGkWUxHgVVZZJbvtttt6S+U4BdE+OLv5xS9+MbEpX6MK8K9+9avspptu6q0xplk0SoB9Ea59aNCsmiKoi3LAw6YgGHAn0Z+MGQeNdMCTCGY74MmgNlP9jptRHTDtPanBwZhRmTcpCOeAJ4POWiZ1oWvUi3D8WYBNU5maABOoMTiKcAqifWjQnLQA13HAd7jDHfL3dsCm6UxNgGGQCx7kgLmgctppp/WW6uEUxGTQoDmpFETdHDCfu9Od7pS/dw7YNJ2pCPCqq66avw4S4EEO+MQTT8x23XXXoQJKDs0OeLw00QFHAXYKwjSZxjhgAmXQXU8EOdOdhgkoO+DJMGkHPEwOOHXAFmDTVBojwASw5pKWCbByyBbg5tAkByzHawds2kJjBFhOaoUVVigNNgXSKALsFMT4YEBUW03aAVcRYA3QdsCmLTRGgOWkVl555Yk4YDk0O+DxoTaDSTngOhfhygSY/uSHs5smMhUBXnHFFbPb3e52+a8el6Fg5leRBwlwFTeU4hTE+JmGAA/jgO985zvnr0pBgM98TBOZigAjvrjgKikIZkyUOZZRHPCgFMQZZ5yR7b777r0lUwW1GUw6BTGKAwanIUwTmYoAwyABjg4YFEyRUQR4UAriU5/6VHb66af3lkwVmuqALcCmLTRGgKMDhqKAG4cDLhPgK6+8Mt++c4XViQI8KQdcJwesz6SzIMACbJpIYx3wpAS4KAXBvhcuXJi/V8CawcQUxKQdMO0yKI/bzwFXcdDGTJvGCfAkHDCutp8D/sEPfjDnfLUPM5hJO2Dain5w17veNV8e1O79BNgO2DSRxqUg+BwUBcywAsz3JLBFLor0g7AAV2fSDliiztREGORiiwRYZzQWYNNEpirAf/zjH0tPI3FTd7zjHbN73OMe+fI4HXB0Z0UOOArwoNNcsxQ54Lvc5S4TEWDlf+sKcJyGZgdsmszUBFiphd///vf5awpuCvGVe5mVANsBVydeOJ1ECkL5XwnwoHYvcsBq70HibcwsmKoDhrI0BG7q7ne/+0QEOLqz1OESpFddddVcntECXB3a7G53u1ted5NwwKkAV3XATkGYtjA1AVZq4U9/+lP+moIzvuc97zl1B8x+OdXdcMMN82ULcHU0aHLK33QHbAE2TWRqAqxfKShKAcCvf/3rbI011pi6AGubcsDOAVdHaaNJ54AZmGGQA1a/+L//+7/8NbalBdg0kcYI8C233JKtueaaywkw4vnLX/4yfx8FmODi59CrEAU4FVgtOwVRn6oOGCfKz9cDs1Guvfba/H0Kn4k3wozqgC3ApulMTYBvf/vb56+pAAJBhwMuEuD3vOc92ZZbbpm/jwL86U9/OnvAAx6Q/eEPf8jX9SO6szIHjIsDC3B1qjrgL33pS9lGG22U/6TUN7/5zez+979/9tOf/rT33yVcf/31+foLLrigt2b0HHBsy0HfNWYWTN0BFwkweWECuCgF8eMf/zgXZ4gCjGPmM/pfP+TOEIpUgFUeCXBR+Uwx0QH3E2CEl3qnzW688cZ83c0335y/iltvvTUfiHW2A6M64CjAdsCmiTQiBUFgQpEDJmB1MSUKsES1380dQp9FLFKBTQU4Bq3pT9UUhHK5DLS6CKt1QvUe1w/rgDUPOLa1Bdg0kUY4YLlYHLAuoCjYbrjhhvyV5SjAclx1BbgsBeEccH2qpiAkpHUFWO/HkYKwAJsm0ogccJkDJoB0qkoAKaDqOmCJgx3weKnqgIcVYH1PsyAGiai2USTAg8TbmFnQiBREdMBRgMkdaiL9pB1w0WmrKYd87aQdMN/jjEhnJ3UdcGxLO2DTRBqRgsAB45C5pTUKsC7YQOqAFfDxZ47OPPPM7Nvf/nZvaSn9BFjlKUpBnHDCCdkPf/jD3pKJUP8MjlUcsEQVweYPcM8R1XtcjwDTLkpLDRJR/b/IAU9DgOmz73znO/vWhTGRRqQgcMCrr756/tNFPJAHCBjlfyF1wOrk0QG/8Y1vzA4//PDe0lIk1tw2m+5f2yxKQey3337Zscce21syEbla6g0BZmAralsY1gEjxrRZHJT7oW3MygEz+B900EH5VDtjqtCIFAQOmPwv8LP0BFDqgFMBLkpB8L4oJYFYIxKIe5kDlgBrmVNsvifBMMsSxU51V5aGGEWASXFIUAeJaCrAWoZpCLCOTcdrzCAakYLAAUuAQQIcHXDs1EUOGGHlpox+AowLTwVYQZo6YLktC3AxEjQGNeXP1SYpowgwKY50ZkwZ2oY+HwV40HfHgQXY1KURKQgcMBfgRJEDjoFZ5IB51jCutUyAEVjKkO5fy2kOWNu3ABcTxW6QA1bbVRHgmAPWRb6qOWC2wYBQ1NfsgE0TmbkDjrchi+iAJYwxMPlfKsC6GMcr24zwWUSCMgxKQUgI5OYswMWM6oBje4LqvcgBk5ZiP1UcMJ/jWoKWhQXYNJGZ54B5HCSBUuaAN9hgg3xd6oAV7BJeCTGCmgZ3PwesIJUA6/92wP1RveFOJcBlDnjYFAQOGAEG9Yl+sA0LsGkTM09B6CaMVIARVkSVB7RAFFWCScFO3hdRj6mHNA2BAJflgMscsLavaVNd4etf/3q22WablYplVaIDVt0NcsB69jJUEWDanBQEIPSpiG6//fbZiSee2FtaXoBjX6sqwCeddFK2zTbb5O8/97nPZY961KOW6zPMdlhppZXyPnXIIYf01i4V4LJ6KOMLX/hC9uhHP3q5/UyDZz/72dkHP/jB3lKzoC885CEPyb773e/21nSPqTvgVIB1p9taa62VvwLBdsUVV+TvH/rQh+avMTAJptjJ04tvqQAjoiuuuGJhCkKBP19SEBdffHFet+nDcOqieqrigNV28UE7ZQIcB9pBDvirX/3qMlO+6BdlDniQexbMJWeQohwXXnhhdtFFF83dKCTOO++8/P/cIn3JJZf01i4drOs6YAQdkanyZL9xQhtwvN/4xjd6a5oFN2Lxi+Xf+ta3emu6x9QFOBVABeXaa6+dvwLB9pvf/CZ//4hHPCJ/LXLAckcIbj8BpmNzO2u/i3BlKQj2OwtnMim4WBlfh0WOMjrgMgGWIMX/lwmw1nOTB+8lwKkD5v8sx7ZmG6OmIPT7gAxQ6ptx4AA+w+M1eRxq7JfDpiB0DKO2SV24yajswnUTUH9J679LTE2Ay1IQjHJw73vfO38FBBhwrXR0SAUYhyrXTAeKnSjtUAgwp4xFKQgFaZkDhrjvtiOXNarbUj0heP0uwiGUrJcoAoNhWqfaHv2D9pWIaZBNHbCCM7Y12xglBYGA6sHxBL36pl4FAsyZGYPDOAV42g5Yg00aL01B/Smt/y4xdQdcJMCII3c8CQkw+R8Ft5wRAUYwEYByzXSg2InSDiUHXJSCUHnKpqFBl9IQ4xJgCdqgFITWcaejYLAtc8DA/3Q6H1MQUUTLBJjyDOuAOd0V9MsiAcal8vB4BJg+awGeHGpjC/AYUFCkAkjlxvwvSIDp5AQUqKPT6engCGd0wFy0k4vWzAhgfwRzWQpCQco+me7UdQEeVwpC9RRTEEUOWEIbpxlKgON0wSiW/E/tHS/CRQesfaUCXJaCqJIDliBBmQPmF7ShnwMuqod+6BimnYKwA549UxNgxK1IAOnoZQL8sIc9bO69AhkBVkeXA9aMCZYRg9ih9Flcdj8HzP/403IMoi4J8LQdsNxgTDHxHvGNn49iiagN64CLUhC0axUHjCBxYY0+xi+xFAmAREsCrH4J6idtcMCkhhhMiEuOoepFymkSHXA6t78rTE2AIQqcoHLjBTgY5ID1XkFNB+ZvlVVWyf9iUKpTywGX5YAJXP603FUHPC4BjvXWzwFLjKID1oAb3WMUyOiAJcCpA1b7sE/tNxVglZEBoooAf//738/7HP3x0ksv7a1d9iIQAsxT+zgGOWCJQ5sEmDQKgxwmB5gi2DTUxrR7jOkuMXUBRgDpoDy5jFMurjYXOWCC6MEPfnChAAveI6xywFUEmGBh9BfRJUUBjmIiNxahw77pTW+q7RyYAnbUUUf1lqpz6qmn5vNSi6BO3/KWt1Q6VVN9pKe7zDp5wQtekO26667ZZz/72d7acuo64DQFAdE9qt6B9arzsotwsX3U3mUCzACh8rLugAMOWC6gqUNmBSDA9EccMNCfUgfMZ3CO9D/6D9vmT8dfJsBMNfvoRz/aW1oC31PfrpuC4MdOP/OZz/SW6sFgA5rzPCmB45fL3/72ty8Tc1WJbVylb7eRqQqwUhDMnTziiCOy4447Lg+IVICZYP+KV7wiDxyCCXFUsEYB5v/3uc998l/YLRNgdWqlICC6YMqj9Eh06IMcMJ3/ve997zJOqQo8Y3j//fev3SFf//rXZ4cddlhvaVmuvvrq7N3vfnd2xhln9NaUo/pI3dZpp52WLViwIL8p4Mgjj+ytLUfihuAhwtRfdLRC7RYFWDfd9BPgIgcsEYXYPmUCrLaMAozw8EvbX/ziF/NlwQ1BCOfGG2+c90e1zxZbbDEX/OwTAeZGFlDZKGscpMsE+CMf+Uj2ute9bpnT6dhX6zrg973vffnjL4fhmmuuyV8f85jH5K/xusk44dfLuVnl2muv7a2pTmxjC/AYkMApGAh6SAV4l112WebuHNxPkQPGeXEHEZPlcaScGvJX1KnlgEGBCQSthLnMARcJsJ7UVte1UB6Cu0isymBfN91003I3BAjdTVj2f8GxSfTSYOdmANrhmc985sDtgNoQYWQAo36L6kJiJNfLbBMGQygTYOpG9VPHAVOmMges7+q402NUHTJQxP64+eab5+LE9y+77LJ8HxKtIgGmj5UJMPtAVKLYjSLAfJ7b9YfJj9KnyHevt956+XIsxzhRnMQHa1XFDnjMIHS4TwWG7iJKBTiFIFewpgJMMND5EbUqKQhIHXCRABMoCuQiAVaHqivA+nyd7+lXPsqEUesHCWfcZ5EAU5cIUBUBVj1RZ0D9FgmIxEgOmLndEq5UgNUOrJegjeKAVcbogFUH6TFqOQowx6Rb4UmVqR0Y9CEeh/oI7j4KR0T7iGI0igBzLOxrGPGkDOuuu24eLzApAdaxDiPAdsBjBgFE8KIDhfQiXEqZAyaw5EZAAozDkCuIAqwAjwKsoAX+r7LR+OwLx9bPAdcNGn2+zvcU+AR6kXOWe9NrGXGfUYxx1xyPBLhsP5HogAFXW3RMElnNA0aA1YZxH7SDfv047l8ilzrgMgGmPGkKIl6EUxnTutIyAioBpl+qb3IhjnbYcMMN544lOuAowP0cMKjvgMpOndQZlEHHErdXFb4zDQFW2YYpowYyyhgvhHaJqTtggkLORMgdlUHwKZBTB7z++uvPnd5KgAk2BYE6NYFflILgfZEDpvHZPt/r54DrCCno83W+JwGGIneqdUX/i8S6iPuPzk752UHbUj1FB1wkIGoHUgkIVhRgtSmwPbYBrMcB0+7afuqAo8uMAjzIAeu40+PTchRgXvUeAfjOd76zzIAfBxL1Efoyg0Oa42fQv/XWW/P3RQ74vve9b60+gcHQ54dxl3yH6yeKi0kJsMo2TBmpR2KQQdAOeAwgdDEFAfe6173mXFQZMfiiABNY5B8VFBJg4Kq+OinBTycb5ICjAKvxywRYI3pd16LPV/0eQsR8za222ipfLnK5Wlf0v4gClkErBjsCjNNnSpIGw0HbUntEAS4SEAkw7UZd9hPgmBtG1OQwoaoDjgKsgbZIgNPjY5l+Qj0UCfDXvva1XECjABc5YNVfmob47W9/OyfK0Q2q7Pe73/0K668M6lX9uK67pH7ZLw6Y+CFmJiHA2g+MIsC0AQNgjNtpQZvRj/gbJtc+iKkKsFIQErnVVlstW2eddfL3/SD4RBRgGgce+9jH5q+IOdsEOvS+++6bd2o5Kzng2JD9HDCBS1CmAkzAKVhi0DBTgalc/Sj6HkHNFfIiuMBIJ3jWs56VL0s4cGw4g8svv3zOvfHar5Non1x4YQDQZ5kexUOPOP6qAkw9UW8EMAwSYISNFAN/Eq5UgBlo+Rz1y58uwEEqwBI4vqOLWqkAqy3pJwokDXzUFRduqQuefsayjp2AZxv0TcSJfqDpY1UFWMctYn1GMUKg6Je40Tgob7fddnOzXp7znOfkU+cisa77iRs/KstMjog+zz6higBruijXbahvvsvT6Pqh/VCXVQaJ17zmNdkLX/jC3tLSGKQdmG1EW59++ul5/G666abLPIp0XNDHeMgSUz7ZD8+ioU/xF/vfuJi6A44CfPzxxy83L7KI6JBTBwz77LNPdsopp+QXTOi4TM/BzV1wwQV5p5azkgBTBqGgBZUP+jng2OFjIPDYvHPOOae3tDyIgIJM38OZcWp7/vnn58spuFM6MLMTQGLLPFVOyxAPBTcdJAZxiv6H6NC5EEDKxLaY2wpVUxCUO7ZLvxww9UodM+2Qn20vc8B8hv+xHucfHTBtQZto0JADRhQkHmUCjKgDZVYZcaQENcJAP6EOJZ70KwLwla98ZT7AfPKTn8zL/fGPfzyfpibiQDLIAas+2XbqgBFApXBoD9rxK1/5Sv7YS46XPnXqqaf2vrGEWNf9xI2ZRszeiAOCPo8DhioCjPAiwmeffXb++EpigEdZ9kP7oW/xvp854H/MaeZxqUIxyODzrne9K3/PI0LZFnO2EeNxQ0z97Gc/y+uf/TB9jllZtL+M2jiZugAT+BI5RmY9brIf0QGnQQkE7fOe97w8WAg25tk+/elPz6677ro8FSEHrAqs4oBpfIIFAdYVeaGORaBHwSOo+Su7qwinpE6o7ykvyFzmIhBgRnscPccnsWU/wPdYJ1HrJ5wKWlIQwDKndgQnoz5wFsFxRcdWRBy4gDpGiOLgBmxbAsjDzR/4wAfmws1gSH0IbY/2ZTv8L7a1Blu5EAkc+f8yAVZZ9N0owLSDct+qQw0+sMMOO8yJ6U477ZS99a1vzV784hfnbSBUPjlg/kf9QZkDZg5xHMBxkxJgxJdtLVy4MH/P/G7ah/rgzrWYB1X/4Vjj9iIcP2dQoP4C+nx0wHFqXBHqn9SZ6k2vZWg/nDVwXDFWUngKHX03Diy0MTHOhU9uNGLwoxwqC8aln6gPQ4wr7efVr3513v6dEGA6hUQuBnA/yhywBLgIBAWhZeK9BLgsBaFy8KqyqfH7OWAcd+wwsfGKiJ/Ve32HoEvFSwFEB6buCG4JrL6He+U9T46DfsLJPhEJpX0ICJVVAkwdkcap64BVx2mQRQEWlEFOV0g8owOOKQiJqISXAZL9U1YJMGWKAqy2VD+JAgy4KaAOOF4JblXUFyXAlFfrUgFWfW655Za5qKqtowOG2CY4zu9973v5e4iCp+OgD8oQpPB0N8oG6i/A52kDzfCo4oBVJpwwZ13AtYnUnES0H12/KBsoQMcW20cmSNBHKYfKwqCh9+MixrC2rdiYBFMVYIJ7GAEuywHHxklRpRHMg1IQGtk0QIBOf4oEmI5FkD/oQQ+a6zAIgzo7zqWI2Ln0Xg+eRxxwOREFkPKOODQJrL7HaTRuSSmEfsLJPqkLTfdiWZ0snlojRHUdsOo4HiMgRLHNhIRWRAHmmPkrcsBRgFkXxYNtIMoEvZZB31WKRk5X7pD2otzRAVeB/kLfpKwSYA02RQ6YY+MMgPZCXEECHOsvisrnP//5/JX+ViTADLw449inRfy8+gsghJw5qP2qCDB1RBmof1IaD3/4w/PjUB0Wof1w9qblMlRW2lVnOYpBQR/l1mZu59cgG49xHKietB8GRp3VTIKpO2DcpwKjqgAXOWCCLK5PiaOW3IWEtkoKgo5G4EqA46mOOhYNI8cXHUbZqBzdYZXvqXNJgBHG1AHTSUEC3E842Sd1ofpQsCN0msoHUejLqOqAEdnUAYNSDUICrPVpDjgVYF4Jznjno7ZB3+BPoqTvygGrb1B3DMoK+LoOGGJ56StlAky7Ua/Ku8q1SoDTNpFZ4NZw9sGF5ig2qmfSU/RnCXqEzyvGUgescgD7p/zq+0VQpqc97Wm9pSxP86WDQor2o1SHjrkI0glCx6YYFGo3HgPAmQRtP24BjvXEfhB9DeiTYKYpCAnfIKIDVoMQfP0qhmCQqKhzlzlgddIowBp92Q6fl9ABHYlOFS88VRFgfRbh0vvoTPgeo65yfXQuLjKpA0dnGr8HuHHqU/+nPAsWLMhOPvnkuZw0+0wFGGdDx451GYVecNr8ox/9qLe0bL1B3GakKAUB/Rww63GVg1IQrEM8+DzLODKVCXFQW5YJMDzucY/rvRtegOWA+wkw7cL21ZZyg0UCTJtw2k5/pR25Eo8A0zdUZ6pnBBi4QMisAC5Ga9/0nyc96Un5+1SAVQ5AyCBeu6AMbI+Lf/Q1Tvd5cI+uHzz1qU/N910kgJSNHzdlG+yH46ZvRgdM27Bt9vGJT3wi71tqFx2bYlDoLI1j4T3z1pmJwTb4+/KXv5z/n+/xDAqt52IdfaMIyqRnPEOsJ97HvjIJZpKCkADGAO6HBJjP631smDJUeTq9k+BXccAKcAWlnh4FGtkJGgQBByVBxOXQ8YpQx6JT6j2NTL0QhLgABGGPPfbIA42r4E94whPmxFHOFDfO9+IpM4MNd2hJOPfbb798Stzzn//87AMf+EC+jn1SF6oPnAaiH9MPEPcDvDINbrfddsuXocwB67hEmQBLuIQEmH1z8RRBq+KAtV/Vfz8B5js4PXKf2rZml0Csz6ooZYJAUZa0nIL6ZPvMQKGMzJjhgTgcJzn5NAVBaoGbM4D2oR/Qb3HEwOeIBS7qcaw88IYpXHvuuWf+YCbSBIgLF6P5XBywNaVM6JpAfLDU3nvvnW+Pp+Px1D+gHLhg3Ce5d8rEcUTRAp50uNdee+WDNiJN/6Z/cselOPfcc/Ntsw9mMdHHmG4H6kNqY8HFOEFsb7vttnkssg3+GBQwLzzNb/fdd59bzywGxD5F+3z84x8/l8umnmLKoVMCjNAheAQGjVLV2ivQ6bh6r47eD1WegpR9QhRgBT6ofKDG52e7+T5T24Dvkh8ir6XtImTqhDiVogtqoI4Vb4SgwenM5AYZqRFeLnLwNDjcEVOhBIMBYk/Q8r1HPvKRc4MH/+OPQGf/bIt5lYi9nnxFOSmzgp3OSgdOO1ncDzDtiIsvMU8Y6w2iqEcQYKWNImUCzEwD9svyIAdM+0jcVVaVCVFSG+i7mnFCHWhgJfhwrqB1ddBxMGggmP1SEGyfzzPAMgXzwAMPzMWRQVJ9ibaib9AmahdecbI4YZ7Ah3DwGb6DoLNtZhHw94xnPCP78Ic/nL3jHe/IjwtBZmBW/+S79LFYt4gqgqw+DkzFopw8jAgXCZSDh2Tpl6hf/vKX5+3woQ99KF8GxH3B4jMvhI86YfYCMPhEoWb7wNPlKDffYwopKDZkggR1K+dOWYgRYpHvc6YH9H22TftTl0wji/UW4TiY9kafZYokUEb2Qb2C2mBSzCwHHIN3ENEBS4CrOGA5O3VuCXAUR96XOWD2QUfFTfKoRxqUUZ3PIMBRdOQwcLD8n1MqRlX9cdwSJxpY72lwAkQNjatgu3R6TrH04BeQQ0Nk+R5OjnLQSQls/o+o8rhFjuXNb35z7hoIBFDQclz8ac5lkQMGOi9lP/zww/Nlnf5CVQfMd+o4YAYV6gD4jCgSYNZpfZEAqy3VV3R2QP3qGAlOHb+e8VAHykidMziVCTDlwCFrn294wxvy48CpcZbCevUlbooByqRy8Urf5Xs4WwZo+o++wwDOvvlD1EklcPHuZS97Wf4ZHJ36J/WGEMU2oR15TCbzoXHB1CXlxYXL/fIZjAOxonikXJxBIMBsn77y/ve/Pz9ehJfP0w4QywD0SfqMnD6Dk/qQYiN1wBDrBANHLPF9+g0gxmybM1RmiBAf1Bs3LHE3I3D86tfUHTFGuenTlDHGo/Y3KWaSglCwVUWBznfqCDB5UVCOS0Jb5oB5VdDS+AruV73qVfl+uVuNBgYaPYoOgshn1BG4EQQHoj9O2/gcHZ/OyHs6Ag3OMg4YDj744NxZgDq/kEPj1JIA4XscI0JMZ+SVVAmjOYHN5yknZWZfiISCljphsjmknUzTk3A/lJ0bAXiNApy2If+nDKkAI0SqxwgDG0Eg4vZ03KpfSAVYwan1ClptIwqwxEYXqtgup90ELwJKHRKIEpY68H2lnAh27QsXRlqJWQIMmKD222STTfLUAPXF3ZNA36FOYpuo/6pv4JQR66OPPjqv51g/gtwxJoB64AwI6Cdyn2rD9KzkpS99ad6GxxxzzNyATd8h9cRxMVApfiK0Ff2KcvF9nCZnjXqKnIguHOiTbDcS4wlSBwzUCce2wQYb9NYsgbakzSl7uu1Yb8DARFm5yEZsM1iQHuHmG8qouCraz7hZvkYnCA0oAS5qzDKKHHBRUKc8+clPznM/clRFKYjogFU+/viMRJ7A4YYRHCO/0gE0sC6W0WFoODoZn+OCSBQi8mRnnXXWnGjzx2hLB+N73JBCHgy3SlkRa6b57Ljjjr0tLEFCSUoA2B8dXhdPcD8EKx2R00egnIg8eUUET3k0ThO5qIPw6JgEAcwdinKo1DkiQm5RQsmr2gLYJ506FWD2yfqUMgcMnBJzl5UuIIHaW86SumO7Wt8vBaFj1uNPqf9DDz00H8SA03Xqfxg4Dgk9da0+w52NtAsXiRjIIA501C/TDBE2QV/lzIl0AKfA3FxEWXWhjW2T92SbugZRBGdPCJEGUvqJLgyXCTB1ufXWW+d9XCaD4yEmuPtNM0VScI/cKahYoN6f+9zn5u8jiBr9ECPAwMM+dFxC5iAKcGq0uCuONEs6WNIXqRO2yx830gjVmwY3Xok58tTkutkWfwyWimMGxqL9jJuZpCAIDAVKFRToUYDThimCzkCSXcJbloJQWXglmGh4iCLPNC+ulnJaznZobHUY3JecLPskj0kD6o9nUgA5J74Tv6cRl2DidI7OSXDQiXkfIaBwVepIfA+ngWADAs/0oNe+9rX5/0BOgCAC/QbYE5/4xLxsOOV0P7QTLkHlxyUg1KAAZgBJ25DjkhMFgg1hLBNgxJnPQBRgysPdZ/1ywKkDlgCrf9AOGmhxRzh+DVyUE2ejuzD5f3zGQx2ikFH/lJ0ySfDIceoCrm6WAdqSi0YRlqlvLiABx6dngAj6IWKHyKgfpVAO2ldI/EADWExBCLZNufVzTOo7DNAaRIqgvOorpDIk/BFEjbii/zAjgQGCckboE7QbfYh+USTAmKF4bBG2xy3KmIV02xwbZ0DEL/veeeed835N+9HfOSvhIjj9ivrqt59x0ooUxLAOOIWKhjQFofUSYAV5bHwaEMeG+yBg+awcSHTARfBd4DN8R98jJ0lnK/teCsHNtuTkqnxPHVH37UcRqIOERgJMPaktBMcVHTDBTrAVCTDiSl9AyGFQn0gFWMGZCrC2EQcV+h31Rv2D6n8cIBrANnWDSxQ3xBcRps/o/6OQ9qUqICi0BW1X5oCBbdNe5I8R93GUV8gQMBAghLS7BF7QZupDctx14pztUdd6H1G9nXTSSfmrlgXLdeJqXEzdAQ8jwMM64JQyB5wKsBxwKsDAKZpETQFAh5EDLoLRVI3Kd/Q9rthC2feKwMFqAKnyPXVElbtIDKuQCnCRA1bwCIlimQMGBjWCnr9+fSIVYF5ZVybAOCkhARaq/3Gg44gBHwWYNubCms48RmWY41DfQ7QHCTDQV1IBG5VYhpjiSFEfKjJBg2B7OqNKt61jW7BgQf4a6xFYrhNX42ImKYi6AjxpB6yyaIBQ48d9cBqmoFbjxlMmOla/kVMNTgdT4Gh6WJ0RN3acKt/j1Fun8mmnq4MCVqew1FvqgNMURBUBJg3BtqCOAA9ywFGAeR+PfdhBqAgdRzzllQCTS0cQmCo1St1HEIf0BqNBSFDoo2q/IgGmXxcNKONAZcCoSIDTNAHQhxBgmaA6cR63l25b9Ub6gTRemiapG1fjYqoCHFMQEsMqFAnwKA44CnBVB0xH0NQUdU5Omegw5ORwFv1GTjUwn+cPJMD9vpei7bBvOtIg+JzKO4oISFTqOGDNcoi5XKF1OOAqAkwb8f8owLRJFQGODpj9qh+MAwlZFCzVFRd5xCh1nyI3rX40iOg+1X7RpQvqTCmqSQmwHDD9UnNtI/QhBvGiGByEykybFMWU6o22YP+R2D514nFUpu6AJcD9gi0lpiAIHjrKKAJMGUQsC6+cCquTpqOvGimOrnSYKk5Wjc/n5Vw0Gb3OiMssB+qRi2JVhUTlHeU0WEKjuqHeUgecCvA4HTDQHggwrpLXqg6YetK0ItX9uChywCoTs1h07OMUYG2r6rFIUHCfar8iBwxFfXwcxDLgQpkGmPYfUB8qOgsdhMrMayqwoGMrigPy3eTpodMCjPtEAAcFWyQ6YKDh6jSMkNMtc8B61fSoVOTVgNEd0GF0C2e/hotBo8Cp8r0U6gIRrvOdcThgBaxOYcscMO6FQQz6CXBdBwwSYD6PCFcVYIKRPkO9qe7HRdEpO+5St4ZT53xmnI4y9qUqRPGrKsDjLC+wP+pFDrhs+2kKoo7Ror7ZR9m2dWxlccB6vl9WN5NgqgKMExnVAQOTv9PpOVWQYyzLAetVp85p4zM1jGlbsQGZR8g0sO23337uJowiCH5usOBziMZLXvKSfBoU368rCtzZE29RHgTPcODzepDKMOiUtZ8DxkUgjBLDKg54GAGO7ogyILDKPatMEmBe5YaoN93kMi7I8zLRP96x+KIXvWjuFlw9zDsOCKPCLbvcYswD7qtAXVO3zEvulwMGpkKy7Xg84wKBZAYEMxV0k0kKsRAdcB0Bpp2p97I53dQb8+OJwSK44zW9+alRbL755ovja3gWd8ZFi0e4Rdtss82ixR23t3YwZ555Jpc2F2277ba9NcNxzTXX5NtZsGBBb82iRYuDeNHiwMzfH3nkkfn/TzjhhPz18ssvz9ebRYtuuummvE4+9rGP5cuLA3jR/vvvn78X1CufoZ7h6KOPzpcXO698ObJw4cL8fyeeeOKixaek+fvjjz++999iFg9ii3bZZZdFt9xyS/75Y445Jl+/eHDI/8e6iy66KF+3+HQyX158VpMvz3cWu+BF++6776KDDz44r5fFRqj3n+mx2KgsWnPNNfP9n3zyyb21y6LynXvuufnrhRde2PtPu1l8LEufdBSYSQpiVAc8LGUpCG1X/5dzqzP6dh05pn4OWLd866E3k0pBpKenuPOyFETVPHnXkbOk/UhjzaJecMC6LbvsxhddWCRdAl2PwZmlICR2VUhzwMOSpiAYmGJZtH2lIAh4swSlIDiFpd6KcsC6W063+FKPiLTaL6IUxDAX4WIKQq8W4P5IgGm/aeY4I8pF61brIpSOk1B3PQan7oAR4Og6qzBuB8z+QReLygTYDngptAH1hIPSAJY6YAlwdMBF7hcILERyHA6Y9WqzVIDHmXttMzhL8uS036wEWLN9cL9FsxQgFWA74DFCAA+TgpiUA04DX68W4GIIXAIY9wtpexSlIIrmAAMBiAse9SJcfAVtww54WWIKQmcz00YOuN9zNyTAenKdBXiMEAycvnKf96Bgi4xbgOWA9SoHrFedzsbANksEmFNYCWbqgHG71KFSEP0cMCDAw6QgihywsAAX04QUhO4+e/zjH5+/FqHnT+jni7oeg1N3wEAA1RHTcacgBjlgHpJDJy3KXc5ncE79HDCuljRElRQE4I7HlYIQ2oZTEMvShBQEU0f5mS0etVoGd5sS75ojbwc8RiSABJHeV2FSKYjUAWv7/OpFnRsd5gtKQZQ5YCANUVWAh3XA/VIQKpMd8LLggHG/uOBZCTBx/JSnPKW3VAyCy6Mv00G2q0xVgBUMs3LAaQoiDXwJMc92sAAvjwS4zAEDDjjOghgkwJN2wBbgJSi3irmYVQ64KsoRE491jFobmZkDriOm43LA2v8gB8wdQ7pia5ZC4PbLAcM0UhD9HHAqwE5BLEECzK3As3LAVZEAx3btKjMRYAKujpiO2wGnAqztxu3bAS9PFQc86RQEbZfOUuknwHbAS9ANDtB0AdZt0F1PP8BMBBgGBVtkXA5YQZmmIFIHDHbAyyMBHuSASUEg0jjVcacgQL+BVyTAElwL8LLIAUPTUxDEHr/jZwEeMzEYohgPgkDn4R080GZU2G9ZCiKWyQ54earmgKlffmUWBqUg6jpgYI4oAish0Xq+rwn+EmC9zneiADfdAcMuu+xS+tSyLjHV3hkFblCwRQgifi1WP1Y4CgwCEuA08GOZ7ICXJ80BF7WhbsbQrx6U3YgBOOBBgh6R0PKjkTy7Vf0pCrCwA16Wtgkwv8DNb9N1nVYI8DihDHK+ZRfhwA54eVIHXJaCAB66DYMcMDfm6FGSVQWYwbjoAeixPBbgZWlTDng+MVUBjsEwKwHu54DjAGEBXh4Cl7ojbwtFbVhHgHHAoJzuoD6hlANzWeNDt/s5YKcglkBdqy6angOeT0y1dzbBASPAVRywUxDLEwUQihxwmoKoIsC33XZb/jqoT0hoocgBFwmwHfASqA+5YDvg5jAzAY7vpwn7rZIDtgNeHgWuBLhIMOumIKCqA44CXNUBW4CXojywBbg5TFWAm5aCKHPAOLMY7GYJqQAXOWAEl/q84oor8uVBF+FgGAccBVjOvEiA9WqW5oEtwM1hZg54lgKcpiBUFpXP7rcYCV0/x8o0sLe97W35727xG1s8fLuMNdZYI3+94YYb8tc6AuwURH3kgJ0Dbg7zToApQ5qCULlUJud/i6nigOGggw7KzjrrrOyYY47p60AlogsXLsw/N8itSmgpRxwkLcDVcAqieUxVgNuSgrADLiYV4FHbkBQEdc20tirbktCSfoi/qNBPgAeJ+nzCAtw8pto7owOO76cJ+5Xwlk1DswAXU9UB10G53DoCHNMPoPWeB9wf54Cbx8wEeFT3NCwEJPNYd9ppp+yqq67K16lcKpMFuBjlDqteNKvCMAIcL8CBHXA1nANuHlPtnU1JQSC8Z5999tytjioLr4cddli211575ctmWdZZZ528jq6++up8eZwOuMq2+Azts/fee/fWLKGfANsBL2W33XbLDj300LnZJ2b2zDsHTBn0oBjdLBDLdcABB2SbbLJJb8lEELrNNtss/00/GEcbKp1QdVu0z6abbtpbWoIFuBobb7xxduCBB/aWTBOYdwJMQOrn6HmwDMyqLG1ED8vmItg4xK1OCqIMpyBMW5lq74wBO0sBTokDg+mPBJj2izMRhmUcAqznxhYJsB2waTIzc8CzEr2i/c5qMGgj+rWCceR/gbwybTJKGzAQIMIWYNM2ZibAsxI9O+DRWHPNNXPXOq72oz3WW2+9kbdHGqJoGppTEKbJTLV3RvGblQBLbPUzR2ABrsc222yTrbzyyr2l0eHXTkbdHncvxm3YAZs2MG8d8BZbbJG/ggW4HkcccUR23nnn9ZZG57jjjstOOumk3tJwnHPOOdnBBx/cW7IAm3YwbwVYF5MIVJ+m1oMJ/RtssEFvaXR4KM/aa6/dWxoOprMVOWC3rWkyU+2d0Y3MynVqv7qYNKuBwEwWO2DTBqYqwE1ywBtttFF+y7HTD93EAmzawLwV4HXXXTf/swPuJk5BmDYw1d4Z3cishI9BgFwh98PHnzY33cIO2LSBeeeAt9pqq2zHHXfM32+33XbZ1ltvnb833cICbNrAzAR4Vs5z//33z0444YT8/b777puddtpp+XvTLXSbtFMQpslMtXc2IQVh5gd2wKYNTFWACQo5EwuwmSQWYNMGpn5+RuqB4PCpoZkk6l/uZ6bJzESA7X7NpLEDNm1g6gJMQMzqApyZP1iATRuwAzadxCkI0wYswKaT2AGbNjB1ASYgLMBm0tgBmzZgB2w6iR2waQMzEWBfhDOTxgJs2sDUBdgpCDMNnIIwbWAmDtgCbCaNHbBpAxZg00kswKYNTF2AnYIw08ApCNMG7IBNJ7EDNm1gJgLsWRBm0liATRuYugCvvvrq+c+QGzNJnIIwbWDqvfOUU07Jjj322N6SMZPBDti0gakL8EorrZStuOKKvSVjJoMF2LQBn5+ZTuIUhGkD7p2mk9gBmzZgATadxAJs2oAF2HQSpyBMG3DvNJ3EDti0AQuw6SQWYNMGLMCmkzgFYdqAe6fpJHbApg1YgE0nsQCbNmABNp3EKQjTBtw7TSexAzZtwAJsOokdsGkD7p2mk9gBmzZgATadxAJs2oAF2HQSpyBMG3DvNJ3EDti0AQuw6SQWYNMGLMCmk6y11lq5+PIbhMY0FQuw6SRbbLFFdtttt2Xrr79+b40xzcMCbDqLf3vQNB0LsDHGzAgLsDHGzAgLsDHGzAgLsDHGzAgLsDHGzAgLsDHGzAgLsDHGzIgVeq9V+e3iv18seWuMMaYi6y3+u9eSt8YYY4wxxhhjjDHGGGOMMcYYY4wxxhhjjDHGGGOMMcYYY0w7yLL/B0dBQ9hKD0/9AAAAAElFTkSuQmCCsA1BKBm9l5gTKUmcu0Wx+HYrJFpRpQo4HvIQRHJuklFM6/e3DUGUCIU+DwecCXBB0IvgdhmdMEGDENM4FSPUJJw+wzYwQhBKK1Ln1y8US11h6oTqzXNOXpYt8uinAOuzNJKqQo6OLIROIQhQR2V/Tz9QJ8CK0bWxALPJurKbLLQnUjTLRqFVaBSiydAiOm9l7YB4tzqEkQ1BJBe9TASw03CziApKDZ73jic9RKJvJ+EIOeh53SrOWex9VTmtO6ARsLE3dOo5baNRw2EnM+hlyMPvRoR76aV1vLaX75UxIYi4IIuCGUIQsRAqxKMQRFkMOHfANgQxttFYEFtCEHTgFCHlIwes0IdyiW3fRFukDpEG1u2wvVvKhuy4S4a7xD0pd17TT0eZ1aUeJuGAiTtdBqosBAH67H47YDoqzgvpmjjgYohAMKJsmYQrEel2MM/Cd7T7bP023RahffP+sgnKQdH9r+sDOBFtR9lpwqWIdcDw5ouOjV5wSr6Gv1vK0tBsRoYERUPnost+8amHh5VLEmJg6Sw7M1184pJsEUYZiOZrn35UdPFJS4Jo/Ox5R4b0sVeds6LrhiTedOGq6LILVqaPqnnJ6YdHrz//6GwjlfGgIWsegnhyTBYE4oYwSnjlgEtjwGklZyObPATR+nlFOG8k5ysMgTviGBDYTIDTBqtwE0UuN8QKNKUE9otzj1kUveLMI8JqKvEzcZm+9ZJkCe4bnrEybCZuJwUnykXHLwmLC1h00Q10AHRu5CWrA20nMuSe89n29/QLnCUZEGx+c/yyPP/ZgjlhFCUH3EsWBOXMeb/03CPTZ1rhvLG8mrZaBgugtPKvLjrX+D7DkBnHGYavFY3NIgcs0X7Hc0+Inp4uruiF8oUYeWcgB7wzFgUoumxmuklyt8+zSu6Lbz4/+uQbz8tmesvgt7//ZaeGpHoqCpfn4X1/9NOnZwLRLa88e0X0uh6EBKH/vZ86pefvsajBagibpO+1fp5cOdcMA4UFyhwwCxiAzo7PgqpOGcFFfO0MOb+J0EQWgkiPKRfg/DNfEXeevZy3bqDM//TVZ7T8RvJiLzs/6SBfeOrysCS8nzBc/nD8nd3MAQDnSMKm8lOHWoSMHT67rMwmCqE2llGHPa7NEnsLZoT/a5GOJl+7hcVIhH7K4Lx95NIz446gvJ2Sh81K1DqpVYBpHAxPreh1g82CmAhlMWDuq9FmApxOJGl46+RDVoVnQidaaBxarLE13SA9E+ASB6ytJvk8pQVWhSAoD0IQmiFXR8ixjckDTj+qn85zmAnx+fgcMYLB0HQ7f9BPED4ty27nsJUmqb0renHAw0itCiMHzPC1lwqQOeAJVhp9p3ZDYzLHTghmIYi09x1PnHlUkWPSJBiJ9HYvCDgkdcC6SjECTOdZdh6VGcFog8wTqAxBxJ/D9ysVTSEiXFI+CZcck5yvRj0HOsTnccCEINpNwA0ajZDYea1dOEyTpBLqUTdBtf46BBDHyV8vblavnagDltDKcaU38XHp85P/qzGPJ9NiVKET5PwxhNUIolgeZGbA1seSEQSutF3OLQ2L4giTcGkMuNoBJwJcdMA8n4cgkmNS36DbAx2cJeldlJ+uZVc3yi4g/NAuHKZJUgnwqJugWhWGBhy2oyyJH3aiGAMeLxqOapa+GHtU480m4dwBt8BQnwYswSxmQSxMr6xgY8CK9RahASY7osUOOM2C6GYSDvcrByx3ZIepEvEsBuwKHAjpXWkIomx70DpQumWnCT5lCGnnul6yIIaRWn8djYHRfxi+9uBmFQOuaqBVaDgqBywnl4cgklvFE0d9+NMrDF1xoO3Sxsh55VzqEudkJsyd0T7tiyteJJNwEvTOYhnS0JiEG+OA83LK84DDTU+hrlFGk3CTGYLQNqfnpfs9l6F9OnT5ol7ygIeRWhVGQscsdi9udnq6F0TVELUK8pBBwltcACCB53I8VFJ3wK0QBw4OOM3RLHaiuFriwBJgVqdpIUIZyZaULMQo/7wixICpO1mOaCq8Wo4MeR5w6+2BDqmAdIiEfLj0/2RA6uhnfv686JQj2u+sxkboGC7lyLsD7iOKteJgepqEM7uhTQQ5YE3C5UPf5Hl9PkuL61yOOCzMmp5cMDPPWhhbfdh7guWmQAii074L2pRdn1cVlkpCEKShKUUpqRfWAeuYXIBbwQHjflll1m4RxqDB0HAdt07geLnO3XgWYgwjtf46tVdcTC95wPluaBM7XIm+GnzW8FPhlQCw32ovy4MPFBgV7N63P7uMe1mHSCoaV+sA4rud8kn5PDJO8lh85/LNJ+EKDtgMU3VM0t2Kjzxg0OQW5qJdDnBT0N7MtMeqOjHs1Prr5ICJ4/XiZvM84O7fU0aWhlYU4PR5FTYrhtolax/I0HCZxNF5U7lYGDloEi7EgDs4YMQ55AF3nQURO+BYfBHh5LEccC4o7oDL0WpLliNPVgy4WzRJZ8t1VBnbggaIhI5Jl6p4n0UJ/xPtDRWCSA1X9IRiwGnHYPNaPQQxljwLor0DZnVWtzFgtnLsKQsiHsISv89XKiavb5mES8tQH+UCnDDPTIZOVgiiWyTAox5+gFp/oY37qqF0Q+aAe3hPGUpJYj8K0Gx+FoIwAl/njkjDQhKCyAW4rBNdNGdaCEEQpiBdrFMIgj0KbBZEtQNOhIMRCqiB2slS1TEJby9zDaOM3YSo6SEIlndz7UIX4D5jG4MyEroBAebKtVyqe6Ig/NoNTdkQOi57fB4DHgsCbPOAywSTGDDndcMjj4fHHSfhggNmEk4dYefqKKf78I7HY4HNhUTCzPEowV+3pkgPaOyGT00PQQBXVm63a9koMWkC3MskHM71G++4KLtY4UTgsxSCyIbSCkEYQalzV/xhAaHjMvOdlg5rPwhd9UB7PpSBA96Fo96vUFBntdSCi7s37gwX2pRgS5jt8eijfCFGghY4ANksTec3XnBS9Ik3nJs+Gl3GtqABYhtYL5Nw/SQ44NRxjVmIYRpwL9dpO1AIDjgWTF1IszwEkZy3NdsSAa7KA2YwoqtoVM0LyOlymfeWSwAZByyyEITHgAN2S9BhcMAHCrUKcIsDrmhsg4IGmTvgVIDThms7BQ9BjIUtKem0uJAmlIYgJMCpA+4UgmASDnQVjapOWSEHltTaDcO1ZaGtU6pqPgmXQM61zknTY8AHEpMmwFXDzUGRhCCKDjg5DfaYPA1tLHKanRwrCzFAIYiqSTjYngpwVVjKZjtwhWeh47ICnsWAJ6meNQ3Og7Z6bHoWxIFErQJsBc6KcZ2EEIRWwimWmTZcKyjugMeioWsnx5o54G3JWv5OF45UfFhZDVUOWEIL9rIzmQCXxIAnaaDVSDQR5yGI5lBr9bTDwckKQdhJuLELMZJbnJlt7E5CJsDpZkVlCzG0Ic/t65K1/J0n4ZL/bU9XzlUKsEk3awlBpGVVFgP2EESOcoHdATeHWlXQNrCqxjYokhhwIQSRColcuU/AlSOhyx3r2OrD0P9tlxwfLu/C5X+WzUt2wCrj0HnJeV63PXHLvYUgrAAnz9vjcQEeixywx4CbQ+ca32e0FBl6SUPrJ4hsPgmXhiBS4dUxeQpaOcUQRNkkHPzqc46P/vayc6Lff9kpHWOwymR4YMuuWCjjytjhtaAOgOOwIaI8BJG/X7o7WaGuJqJUtDqv+ut0pl4BNm5k0hxw3CC1G5ocsBqpjsnjv+XkIQgJ8MSqD+EJzjVpbVWLMECb7xB+0CQb5CGI/DNyBxxunBithvMYcHOoV4BNa5gsZ4JLUux3X3orJ6dJHN8HopxZ6T6ybGkI/YjjK5TQzTJzCe0KkwMMCkG0xoB1Ozn1rIloQtRjwM2hVgG2rncyJ+F27dkfvenT10V3rn80PKfQiI7PY8DlqOEqbawfoxhNpnXjgDUJZyfgQM97DLgzCkF4DLg51KqCtjHYeF2dEAa5c8OO6Bu3b4y+ecem8FwWA44b8G++4KTolWetCI+dVpYvmBlc5uqHd4bHZVkQvSIx7aZD5tqAlM+rzm0tnzwEkdcphSg8BpzzktMPj379+Sd2zExx6qVWAbaiO1kOmAap601psYB1cr/0rGOjE5bNSx85FoTuqYcvyDdk74O4aUFFuwm9IpTPSYe1btLie0F0x3FL50a/cvFx6SOnCdSqgtaN9GP4Oh44hjT0G7ZWBNtwnc6ck+7VisHsh7tUDHgi9aHMAfsknDMMTJ4AT5LolTmiyQqHDCPnrEwEmJQ9m4kwXrIQxATqg/aNbXHA6V3fjMdpMrWqoBW6yXLAZWI7WccyjJyVOuBuQwZVLF8wK5TJRMqAjgARtp+hzsFDEE6TqVWAWx3w5DSMMkfkIYjuWTpvZnCt3WQtdAN14ohDEOGJfR5hCDsp6CEIZxiYNAGezEk4YEZd2ONyqjl/1eJogbnEzUThaicT/TwuIWUvu6Mi9bJ1msykCfBkDft1DKcdsSDcgseAe+PdL3pK9JmfPy99NHE++IrTog+/+oz00fj41BvPi37tOSekj6wD9rJ1mkutAmyHmZM9CXd2OpnEQ48T9gZu9ejFc9JHE2fJvBnRYQvab9rTDWRTLEj3Igbprguw02RqVUGruZPlOvW9Zx+VCHC/YplOs5DwegjCaTK1qk+LA56kEIQa5qolc8JGMB5+GE1UrO6AnSZTqwBbNzJ5k3DJLelPyxfOdAEeUSS8XrxOk5k0AZ68EMTBIYbJevjDyUH1EMRI4ntBOMNArepjRXeyhO/MoxZGz3nKsnD/mScsiZ6+alG474wWqmo+weo0mQPOAf/ChauiD73q9HD/tU8/OvrL15wd7jujhUK/rr9Ok6lXgM2EiC//dQZJlgVh6pzjNI1aBZjhoNrDZF0TzjkwyCbh3AI7DaZ2FST0QJvwhuEMEnX0nobmNJnaBZg4sGceOIMmC0F4R+80mPoFOG4YnnvrDBpVMXfATpOZHAfsAuwMmCwG7FXNaTD1x4CnHDxpq+CcAwdfiOEMA7UrIc7EU9CcQSPd7cdlkxxnUNTvgEMIwh2wM1iySTgXYKfB1K6ESRaENwpnsMgBe7TLaTKTI8BqHY4zIBR68BCE02QmJQThk3DOoPE8YGcY8BCEM5JIdz0G7DSZSQpBuAN2BouWurv+Ok1mUgR4mjtgZ8BIeD0E4TSZ2gWYGLA3CmfQeAzYGQZqF+DFc2dEh8Z/jjNIpLueBeE0mdoF+COXnhF98BWnpo8cZzD4QgxnGKhdgOfPnBbNi/8cZ5Dke0GEG8dpJF49nZHEQxDOMOAC7IwkHoJwhgEXYGckkQP2LAinybgAOyNJvhdEuHGcRuIC7IwkngfsDAMuwM5IkoUg3AI7DcYF2BlJ5IA9C8JpMi7Azkgi3fUQhNNkXICdkSSPAYcbx2kkXj2dkUQ7nnoIwmkyLsDOSOILMZxhwAXYGUnkfCXEjtNEXICdkURzb37xFafJePV0RhIPQTjDgAuwM5LkDtgF2GkuLsDOSOIxYGcYcAF2RpI8D9gF2GkuLsDOSLJs/owgvovnTE+fcZzm4QLsjCSnrVgY3fQ7z42OXDQ7fcZxmocLsDOy+LUHnabjAuw4jjNJuAA7juNMEi7AjuM4k4QLsOM4ziThAuw4jjNJuAA7juNMEi7AjuM4k0Sv6zQfjv8eSO46juM4XXJ0/Lckues4juM4juM4juM4juM4juM4juM4juM4juM4juM4juM4juM4juM4juM4w0EU/X97TKbsBkkDNwAAAABJRU5ErkJggg==;" parent="1" vertex="1">
          <mxGeometry x="62" y="72.5" width="352" height="235" as="geometry" />
        </mxCell>
      </root>
    </mxGraphModel>
  </diagram>
</mxfile>
